<?xml version="1.0" encoding="UTF-8" standalone="no"?>
<!-- Created with Inkscape (http://www.inkscape.org/) -->

<svg
   xmlns:dc="http://purl.org/dc/elements/1.1/"
   xmlns:cc="http://creativecommons.org/ns#"
   xmlns:rdf="http://www.w3.org/1999/02/22-rdf-syntax-ns#"
   xmlns:svg="http://www.w3.org/2000/svg"
   xmlns="http://www.w3.org/2000/svg"
   xmlns:sodipodi="http://sodipodi.sourceforge.net/DTD/sodipodi-0.dtd"
   xmlns:inkscape="http://www.inkscape.org/namespaces/inkscape"
   width="437.19855"
   height="244.3907"
   id="svg4309"
   version="1.1"
   inkscape:version="0.48.4 r9939"
   sodipodi:docname="New document 3">
  <defs
     id="defs4311">
    <clipPath
       id="clipPath4535"
       clipPathUnits="userSpaceOnUse">
      <path
         id="path4537"
         clip-rule="evenodd"
         d="M -7.11e-7,540 720,540 720,1.2207e-4 -2.637e-6,6.104e-6"
         inkscape:connector-curvature="0" />
    </clipPath>
    <clipPath
       id="clipPath4525"
       clipPathUnits="userSpaceOnUse">
      <path
         id="path4527"
         clip-rule="evenodd"
         d="M -7.11e-7,540 720,540 720,1.2207e-4 -2.637e-6,6.104e-6"
         inkscape:connector-curvature="0" />
    </clipPath>
    <clipPath
       id="clipPath4515"
       clipPathUnits="userSpaceOnUse">
      <path
         id="path4517"
         clip-rule="evenodd"
         d="M -7.11e-7,540 720,540 720,1.2207e-4 -2.637e-6,6.104e-6"
         inkscape:connector-curvature="0" />
    </clipPath>
    <clipPath
       id="clipPath4505"
       clipPathUnits="userSpaceOnUse">
      <path
         id="path4507"
         clip-rule="evenodd"
         d="M -7.11e-7,540 720,540 720,1.2207e-4 -2.637e-6,6.104e-6"
         inkscape:connector-curvature="0" />
    </clipPath>
    <clipPath
       id="clipPath4351"
       clipPathUnits="userSpaceOnUse">
      <path
         id="path4353"
         d="m 0,0 470.08,0 0,241.21 L 0,241.21 0,0 z"
         inkscape:connector-curvature="0" />
    </clipPath>
    <clipPath
       id="clipPath4341"
       clipPathUnits="userSpaceOnUse">
      <path
         id="path4343"
         clip-rule="evenodd"
         d="M -1.006e-6,1.8311e-4 720,1.8311e-4 720,540.00018 l -720.000001006,0 0,-539.99999689 z"
         inkscape:connector-curvature="0" />
    </clipPath>
    <clipPath
       id="clipPath4331"
       clipPathUnits="userSpaceOnUse">
      <path
         id="path4333"
         clip-rule="evenodd"
         d="m 0,1.2207e-4 720,0 0,539.99999793 -720,0 L 0,1.2207e-4 z"
         inkscape:connector-curvature="0" />
    </clipPath>
  </defs>
  <sodipodi:namedview
     id="base"
     pagecolor="#ffffff"
     bordercolor="#666666"
     borderopacity="1.0"
     inkscape:pageopacity="0.0"
     inkscape:pageshadow="2"
     inkscape:zoom="0.35"
     inkscape:cx="187.91986"
     inkscape:cy="12.80329"
     inkscape:document-units="px"
     inkscape:current-layer="layer1"
     showgrid="false"
     fit-margin-top="0"
     fit-margin-left="0"
     fit-margin-right="0"
     fit-margin-bottom="0"
     inkscape:window-width="1920"
     inkscape:window-height="1018"
     inkscape:window-x="-8"
     inkscape:window-y="-8"
     inkscape:window-maximized="1" />
  <metadata
     id="metadata4314">
    <rdf:RDF>
      <cc:Work
         rdf:about="">
        <dc:format>image/svg+xml</dc:format>
        <dc:type
           rdf:resource="http://purl.org/dc/dcmitype/StillImage" />
        <dc:title></dc:title>
      </cc:Work>
    </rdf:RDF>
  </metadata>
  <g
     inkscape:label="Layer 1"
     inkscape:groupmode="layer"
     id="layer1"
     transform="translate(-187.08014,-300.77477)">
    <path
       inkscape:connector-curvature="0"
       d="m 555.03265,461.21082 c 3.87243,-0.60861 7.21171,-2.91049 9.17599,-6.29797 3.49828,-6.16915 1.35628,-14.00077 -4.7704,-17.46386 -2.49744,-1.42817 -5.46256,-1.96024 -8.30609,-1.53085 -3.87243,0.60674 -7.21171,2.91235 -9.17599,6.29143 -1.72108,2.96836 -2.15135,6.40345 -1.24404,9.71718 0.89796,3.30347 3.04931,6.05527 6.0425,7.72241 2.46937,1.42911 5.41579,1.98451 8.27803,1.56166 z"
       style="fill:#e8ebf5;fill-opacity:1;fill-rule:nonzero;stroke:none"
       id="path4361" />
    <path
       inkscape:connector-curvature="0"
       d="m 591.71789,458.03523 c -3.61053,0 -7.00592,1.64007 -9.26017,4.47121 -4.08757,5.10689 -3.20832,12.54179 1.8801,16.59015 2.09523,1.66714 4.72362,2.56604 7.38007,2.56604 3.62924,0 7.02464,-1.64006 9.27888,-4.47121 4.05951,-5.07981 3.20833,-12.51472 -1.88009,-16.56308 -2.09523,-1.66713 -4.72362,-2.59311 -7.39879,-2.59311 z"
       style="fill:#e8ebf5;fill-opacity:1;fill-rule:nonzero;stroke:none"
       id="path4363" />
    <path
       inkscape:connector-curvature="0"
       d="m 465.33058,506.21695 c 4.37753,0 8.43704,-1.95837 11.14027,-5.34491 4.85457,-6.11221 3.81631,-15.0285 -2.31037,-19.87029 -2.48809,-1.95837 -5.62158,-3.04303 -8.80184,-3.04303 -4.37754,0 -8.40898,1.9313 -11.11221,5.31878 -2.35713,2.96276 -3.42345,6.66761 -3.00254,10.42473 0.43027,3.73006 2.31037,7.11753 5.28485,9.44555 2.48808,1.98451 5.62158,3.06917 8.80184,3.06917 z"
       style="fill:#e8ebf5;fill-opacity:1;fill-rule:nonzero;stroke:none"
       id="path4365" />
    <path
       inkscape:connector-curvature="0"
       d="m 575.37696,539.92549 c 4.34948,0 8.40899,-1.958 11.11221,-5.34482 2.32907,-2.93663 3.42346,-6.66761 2.97448,-10.42474 -0.43027,-3.73098 -2.31037,-7.09046 -5.25678,-9.44554 -2.51615,-1.98451 -5.64964,-3.06918 -8.82991,-3.06918 -4.37753,0 -8.43704,1.9313 -11.1122,5.31785 -4.88264,6.11221 -3.87244,15.05556 2.2823,19.89735 2.48809,1.98423 5.62158,3.06908 8.8299,3.06908 z"
       style="fill:#e8ebf5;fill-opacity:1;fill-rule:nonzero;stroke:none"
       id="path4367" />
    <path
       inkscape:connector-curvature="0"
       d="m 490.68848,476.90019 c 5.96767,0 11.51442,-2.67246 15.19978,-7.30236 3.20832,-4.04835 4.6675,-9.07497 4.05951,-14.23506 -0.58928,-5.10689 -3.13349,-9.68078 -7.193,-12.8545 -3.3954,-2.70699 -7.68875,-4.18184 -12.01016,-4.18184 -5.94896,0 -11.48636,2.64166 -15.17172,7.27155 -3.23638,4.05116 -4.6675,9.07684 -4.08757,14.18373 0.57993,5.13302 3.1522,9.71065 7.18365,12.91143 3.39539,2.69953 7.67004,4.20705 12.01951,4.20705 z"
       style="fill:#e8ebf5;fill-opacity:1;fill-rule:nonzero;stroke:none"
       id="path4369" />
    <path
       inkscape:connector-curvature="0"
       d="m 520.3678,528.94545 c 4.56461,0 8.77378,-2.01158 11.58925,-5.55681 2.49744,-3.12238 3.58247,-6.95885 3.13349,-10.90079 -0.45833,-3.91581 -2.39455,-7.40877 -5.49063,-9.8432 -2.60033,-2.03678 -5.86477,-3.20079 -9.20405,-3.20079 -4.53655,0 -8.78313,2.03678 -11.58924,5.58202 -5.06971,6.3773 -4.01274,15.66417 2.38519,20.71785 2.57227,2.06385 5.85543,3.20172 9.17599,3.20172 z"
       style="fill:#e8ebf5;fill-opacity:1;fill-rule:nonzero;stroke:none"
       id="path4371" />
    <path
       inkscape:connector-curvature="0"
       d="m 520.31168,406.36521 c 5.44386,0 10.50422,-2.43629 13.89961,-6.70214 2.94642,-3.69645 4.27465,-8.30768 3.74149,-13.01225 -0.56123,-4.68591 -2.8903,-8.86775 -6.60372,-11.79877 -3.10543,-2.4923 -7.03399,-3.83647 -11.00932,-3.83647 -5.46257,0 -10.53228,2.42697 -13.92767,6.66481 -6.07056,7.61693 -4.79845,18.76228 2.87159,24.84836 3.12414,2.45496 7.02463,3.83646 11.02802,3.83646 z"
       style="fill:#e8ebf5;fill-opacity:1;fill-rule:nonzero;stroke:none"
       id="path4373" />
    <path
       inkscape:connector-curvature="0"
       d="m 382.57831,452.26279 c 5.44386,0 10.53228,-2.42696 13.89962,-6.66481 2.97448,-3.70578 4.29335,-8.33568 3.74148,-13.04025 -0.53316,-4.6859 -2.86223,-8.86774 -6.57566,-11.79877 -3.13349,-2.4643 -7.06205,-3.83646 -11.03737,-3.83646 -5.46257,0 -10.53228,2.42696 -13.92768,6.66481 -6.04249,7.61692 -4.77039,18.76228 2.87159,24.83902 3.1522,2.4643 7.0527,3.83646 11.02802,3.83646 z"
       style="fill:#e8ebf5;fill-opacity:1;fill-rule:nonzero;stroke:none"
       id="path4375" />
    <path
       inkscape:connector-curvature="0"
       d="m 415.14793,419.30279 c 5.30355,0.0747 10.13007,-2.75367 12.65557,-7.38357 3.62924,-6.8515 1.05697,-15.34586 -5.6777,-18.97697 -2.09523,-1.12947 -4.26529,-1.66154 -6.47277,-1.71754 -5.30355,-0.0747 -10.15813,2.72566 -12.67428,7.35556 -3.63859,6.93551 -1.03826,15.42987 5.75254,19.05165 1.99234,1.05479 4.19046,1.61486 6.41664,1.67087 l 0,0 z"
       style="fill:#e8ebf5;fill-opacity:1;fill-rule:nonzero;stroke:none"
       id="path4377" />
    <path
       inkscape:connector-curvature="0"
       d="m 442.28304,481.82225 c 4.98553,0 9.62497,-2.22253 12.7304,-6.11221 2.70322,-3.3604 3.90049,-7.59359 3.42345,-11.90704 -0.5051,-4.28639 -2.65645,-8.12286 -6.05184,-10.79345 -2.83418,-2.27761 -6.44471,-3.51909 -10.10201,-3.51909 -4.98553,0 -9.59691,2.2216 -12.70234,6.13741 -2.68451,3.36041 -3.90049,7.59359 -3.39539,11.87998 0.5051,4.31252 2.62839,8.14899 6.04249,10.82145 2.84353,2.27574 6.426,3.49295 10.05524,3.49295 z"
       style="fill:#e8ebf5;fill-opacity:1;fill-rule:nonzero;stroke:none"
       id="path4379" />
    <path
       inkscape:connector-curvature="0"
       d="m 501.37977,351.1705 c 0,6.92618 -5.64964,12.5642 -12.6275,12.5642 -6.94981,0 -12.59945,-5.63802 -12.59945,-12.5642 0,-6.93551 5.64964,-12.57352 12.59945,-12.57352 6.97786,0 12.6275,5.63801 12.6275,12.57352 z"
       style="fill:#e8ebf5;fill-opacity:1;fill-rule:nonzero;stroke:none"
       id="path4381" />
    <path
       inkscape:connector-curvature="0"
       d="m 414.03484,545.16437 c 5.46256,0 10.53227,-2.43424 13.92767,-6.69412 2.94642,-3.67769 4.26529,-8.30852 3.74148,-13.01776 -0.56122,-4.6831 -2.89029,-8.86401 -6.60371,-11.80063 -3.10544,-2.48671 -7.03399,-3.83647 -11.03738,-3.83647 -5.43451,0 -10.50422,2.43443 -13.89961,6.66761 -6.07056,7.61973 -4.79845,18.75948 2.86223,24.84481 3.1335,2.46066 7.03399,3.83656 11.00932,3.83656 z"
       style="fill:#e8ebf5;fill-opacity:1;fill-rule:nonzero;stroke:none"
       id="path4383" />
    <path
       inkscape:connector-curvature="0"
       d="m 447.16568,369.44739 c 3.62923,0 6.99657,-1.61486 9.27887,-4.4432 4.05951,-5.10596 3.18962,-12.5642 -1.93621,-16.61536 -2.06717,-1.64286 -4.69556,-2.56698 -7.34266,-2.56698 -3.66666,0 -7.03399,1.64287 -9.30694,4.49922 -4.03145,5.07795 -3.18962,12.51752 1.93621,16.55934 2.06717,1.67087 4.68621,2.56698 7.37073,2.56698 z"
       style="fill:#e8ebf5;fill-opacity:1;fill-rule:nonzero;stroke:none"
       id="path4385" />
    <path
       inkscape:connector-curvature="0"
       d="m 573.59976,428.63726 c 3.9005,-0.60675 7.21171,-2.91236 9.17599,-6.29144 3.49829,-6.17008 1.35629,-14.0017 -4.77039,-17.46479 -2.49744,-1.42817 -5.44386,-1.96023 -8.3061,-1.54018 -3.87243,0.61607 -7.21171,2.91235 -9.17599,6.30076 -1.72108,2.96836 -2.15135,6.40345 -1.24404,9.70785 0.89796,3.31374 3.04931,6.05807 6.0425,7.72894 2.49744,1.42817 5.4345,1.98824 8.27803,1.55886 z"
       style="fill:#e8ebf5;fill-opacity:1;fill-rule:nonzero;stroke:none"
       id="path4387" />
    <path
       inkscape:connector-curvature="0"
       d="m 463.39436,425.43553 c 3.81631,0 7.37072,-1.68954 9.73721,-4.67657 4.23723,-5.29264 3.33928,-13.07759 -1.99234,-17.3061 -2.19812,-1.74555 -4.9294,-2.72566 -7.71681,-2.72566 -3.81631,0 -7.37072,1.68953 -9.73721,4.6859 -4.23723,5.31131 -3.33927,13.11493 2.0204,17.35277 2.17006,1.71755 4.90135,2.66966 7.68875,2.66966 z"
       style="fill:#e8ebf5;fill-opacity:1;fill-rule:nonzero;stroke:none"
       id="path4389" />
    <path
       inkscape:connector-curvature="0"
       d="m 369.77309,545.16437 -107.79215,0 c -39.91695,0 -74.9008,-35.00547 -74.9008,-74.90472 0,-33.36139 19.38841,-62.04621 48.35124,-71.5207 15.27741,-26.48188 41.90648,-42.2758 71.29771,-42.2758 4.39624,0 8.61476,0.33604 12.90812,1.0828 18.62323,-22.70143 44.69202,-35.66701 71.72424,-35.66701 2.12329,0 10.95319,0.26137 15.17171,1.58686 7.13688,2.1936 11.18704,9.86654 9.06375,17.09141 -1.69302,5.79671 -7.02464,9.84787 -12.96424,9.84787 -1.19728,0 -2.3852,-0.15869 -3.55441,-0.47606 -0.40221,-0.056 -4.45237,-0.50406 -7.71681,-0.50406 -21.32646,0 -41.39952,11.42539 -55.11206,31.37315 -2.49744,3.6031 -6.81885,5.85271 -11.29928,5.85271 -1.22533,0 -2.39455,-0.18669 -3.50764,-0.50406 -5.19131,-1.48418 -9.72785,-2.14693 -14.71338,-2.14693 -21.27969,0 -40.0002,12.20015 -50.07976,32.65197 -1.82958,3.73379 -5.19786,6.37544 -9.20311,7.28088 -19.6007,4.34053 -33.28611,23.38285 -33.28611,46.32697 0,24.79141 22.78283,47.36122 47.82083,47.36122 l 107.79215,0 c 7.47361,0 13.55352,6.19156 13.55352,13.78515 0,7.56698 -6.07991,13.75835 -13.55352,13.75835 z"
       style="fill:#e8ebf5;fill-opacity:1;fill-rule:nonzero;stroke:none"
       id="path4391" />
    <path
       inkscape:connector-curvature="0"
       d="m 547.20359,515.82119 c 2.91836,2.30188 7.22107,1.82582 9.52208,-1.08467 2.33843,-2.91048 1.83333,-7.1698 -1.08503,-9.49875 -2.91836,-2.30188 -7.18365,-1.82582 -9.52208,1.08466 -2.32907,2.93756 -1.82397,7.19688 1.08503,9.49876 z"
       style="fill:#e8ebf5;fill-opacity:1;fill-rule:nonzero;stroke:none"
       id="path4393" />
    <path
       inkscape:connector-curvature="0"
       d="m 478.91216,537.25313 c 0,3.83656 -3.13349,6.95866 -6.97786,6.95866 -3.87244,0 -6.99658,-3.1221 -6.99658,-6.95866 0,-3.83647 3.12414,-6.95885 6.99658,-6.95885 3.84437,0 6.97786,3.12238 6.97786,6.95885 z"
       style="fill:#e8ebf5;fill-opacity:1;fill-rule:nonzero;stroke:none"
       id="path4395" />
    <path
       inkscape:connector-curvature="0"
       d="m 607.84369,452.95354 c 3.02125,0 5.82736,-1.37216 7.71681,-3.72445 1.61819,-2.01624 2.32907,-4.58322 2.03911,-7.19687 -0.28997,-2.59499 -1.56207,-4.9006 -3.62924,-6.54347 -1.7585,-1.37216 -3.92856,-2.13759 -6.12668,-2.13759 -3.0306,0 -5.83672,1.34417 -7.72616,3.67778 -3.36734,4.22852 -2.6471,10.4266 1.57142,13.78701 1.74914,1.37217 3.9192,2.13759 6.15474,2.13759 z"
       style="fill:#e8ebf5;fill-opacity:1;fill-rule:nonzero;stroke:none"
       id="path4397" />
    <path
       inkscape:connector-curvature="0"
       d="m 613.75523,496.87688 c 3.04931,0 5.86478,-1.34976 7.74487,-3.73098 1.59013,-1.98451 2.32908,-4.55056 2.03911,-7.16981 -0.28996,-2.59311 -1.59013,-4.92113 -3.62924,-6.56213 -1.74914,-1.3759 -3.92855,-2.14319 -6.15474,-2.14319 -3.00254,0 -5.80865,1.34976 -7.68875,3.70391 -3.37668,4.23412 -2.65645,10.3986 1.56207,13.75901 1.74915,1.3759 3.92856,2.14319 6.12668,2.14319 z"
       style="fill:#e8ebf5;fill-opacity:1;fill-rule:nonzero;stroke:none"
       id="path4399" />
    <path
       inkscape:connector-curvature="0"
       d="m 542.46126,545.16437 c 3.02125,0 5.83672,-1.34939 7.71681,-3.73071 1.61819,-2.01092 2.35714,-4.57725 2.06717,-7.17036 -0.28996,-2.61926 -1.61819,-4.94821 -3.6573,-6.58827 -1.74914,-1.34977 -3.92856,-2.11706 -6.12668,-2.11706 -3.02125,0 -5.83671,1.34977 -7.71681,3.70485 -3.32056,4.23318 -2.62839,10.37162 1.56207,13.73194 1.77721,1.42873 3.95662,2.16961 6.15474,2.16961 z"
       style="fill:#e8ebf5;fill-opacity:1;fill-rule:nonzero;stroke:none"
       id="path4401" />
    <path
       inkscape:connector-curvature="0"
       d="m 481.85858,407.49469 c 3.12414,2.46429 7.61392,1.93223 10.04589,-1.15748 2.46937,-3.07104 1.96427,-7.48624 -1.18793,-9.97855 -3.0493,-2.43629 -7.51102,-1.93223 -9.99911,1.16681 -2.46938,3.07104 -1.90816,7.54225 1.14115,9.96922 z"
       style="fill:#e8ebf5;fill-opacity:1;fill-rule:nonzero;stroke:none"
       id="path4403" />
    <path
       inkscape:connector-curvature="0"
       d="m 434.35109,337.67286 c 3.1335,2.49231 7.61392,1.93224 10.05524,-1.1388 2.44132,-3.07104 1.93622,-7.48624 -1.19727,-9.96921 -3.04931,-2.4363 -7.52974,-1.93224 -10.02718,1.12947 -2.43196,3.09904 -1.88009,7.54225 1.16921,9.97854 z"
       style="fill:#e8ebf5;fill-opacity:1;fill-rule:nonzero;stroke:none"
       id="path4405" />
    <path
       inkscape:connector-curvature="0"
       d="m 440.34682,431.7083 c 2.57227,-0.39205 4.79845,-1.93224 6.09862,-4.18185 1.11309,-1.96023 1.41241,-4.22851 0.79507,-6.40344 -0.57993,-2.1936 -1.98299,-4.02316 -3.97533,-5.13396 -1.64625,-0.92411 -3.61053,-1.29749 -5.49063,-0.99879 -2.57227,0.39205 -4.77039,1.90423 -6.07056,4.15384 -2.31036,4.04183 -0.90731,9.20379 3.1522,11.5374 1.64626,0.95212 3.61054,1.31616 5.49063,1.0268 z"
       style="fill:#e8ebf5;fill-opacity:1;fill-rule:nonzero;stroke:none"
       id="path4407" />
    <path
       inkscape:connector-curvature="0"
       d="m 410.53655,464.78218 c 2.67516,2.11706 6.5476,1.66714 8.67089,-1.00532 2.12329,-2.64632 1.70237,-6.53506 -0.98214,-8.65212 -2.67516,-2.11519 -6.5476,-1.66713 -8.69895,1.00532 -2.12329,2.67246 -1.66496,6.536 1.0102,8.65212 z"
       style="fill:#e8ebf5;fill-opacity:1;fill-rule:nonzero;stroke:none"
       id="path4409" />
    <path
       inkscape:connector-curvature="0"
       d="m 386.34786,507.35482 c 2.94642,2.32802 7.21171,1.82583 9.52208,-1.11173 2.32907,-2.91049 1.85203,-7.14367 -1.08503,-9.47169 -2.91836,-2.32894 -7.22107,-1.82582 -9.52208,1.08467 -2.33843,2.93662 -1.83333,7.16981 1.08503,9.49875 z"
       style="fill:#e8ebf5;fill-opacity:1;fill-rule:nonzero;stroke:none"
       id="path4411" />
    <path
       inkscape:connector-curvature="0"
       d="m 564.15251,472.93211 c 2.94642,2.32801 7.22107,1.82489 9.52208,-1.0856 2.33843,-2.91049 1.83333,-7.16981 -1.08503,-9.49876 -2.91836,-2.32801 -7.21171,-1.82489 -9.52208,1.0856 -2.32907,2.93663 -1.83332,7.16981 1.08503,9.49876 z"
       style="fill:#e8ebf5;fill-opacity:1;fill-rule:nonzero;stroke:none"
       id="path4413" />
    <path
       inkscape:connector-curvature="0"
       d="m 481.48443,522.85938 c 2.94642,2.32895 7.18365,1.82582 9.52208,-1.11081 2.32907,-2.91048 1.83333,-7.1446 -1.08503,-9.47261 -2.94642,-2.32802 -7.22106,-1.82583 -9.52208,1.08466 -2.33842,2.91049 -1.83332,7.17074 1.08503,9.49876 z"
       style="fill:#e8ebf5;fill-opacity:1;fill-rule:nonzero;stroke:none"
       id="path4415" />
    <path
       inkscape:connector-curvature="0"
       d="m 517.20625,490.42117 c 2.94642,2.30188 7.22106,1.82582 9.52207,-1.11174 2.33843,-2.91049 1.86139,-7.14367 -1.08503,-9.47168 -2.91835,-2.30188 -7.18364,-1.82583 -9.52207,1.08466 -2.32908,2.91049 -1.82398,7.16981 1.08503,9.49876 z"
       style="fill:#e8ebf5;fill-opacity:1;fill-rule:nonzero;stroke:none"
       id="path4417" />
    <path
       inkscape:connector-curvature="0"
       d="m 570.86848,504.33792 c 4.90134,3.88968 12.06628,3.06918 15.96678,-1.82488 3.9192,-4.92207 3.10543,-12.0396 -1.83333,-15.92834 -4.90134,-3.88967 -12.06628,-3.09624 -15.99484,1.82582 -3.9005,4.89406 -3.07737,12.03867 1.86139,15.9274 z"
       style="fill:#e8ebf5;fill-opacity:1;fill-rule:nonzero;stroke:none"
       id="path4419" />
    <path
       inkscape:connector-curvature="0"
       d="m 612.26799,469.51849 c 3.20833,2.53991 7.84776,1.98451 10.40133,-1.19108 2.54421,-3.17465 2.01104,-7.83162 -1.16922,-10.34539 -3.20832,-2.53991 -7.87582,-2.01064 -10.40132,1.16494 -2.54421,3.20079 -2.01105,7.83162 1.16921,10.37153 z"
       style="fill:#e8ebf5;fill-opacity:1;fill-rule:nonzero;stroke:none"
       id="path4421" />
    <path
       inkscape:connector-curvature="0"
       d="m 465.1435,366.40436 c 1.90816,1.54018 4.6675,1.22281 6.18281,-0.68142 1.5153,-1.88556 1.19727,-4.6299 -0.72024,-6.14208 -1.8801,-1.50285 -4.6675,-1.18548 -6.17345,0.71875 -1.48724,1.87623 -1.16921,4.6299 0.71088,6.10475 z"
       style="fill:#e8ebf5;fill-opacity:1;fill-rule:nonzero;stroke:none"
       id="path4423" />
    <path
       inkscape:connector-curvature="0"
       d="m 546.49271,426.04227 c 1.90816,1.51219 4.6675,1.19482 6.15474,-0.68141 1.50595,-1.90423 1.18792,-4.6299 -0.69217,-6.17009 -1.90816,-1.47484 -4.6675,-1.15747 -6.1828,0.71876 -1.50595,1.87623 -1.18793,4.62989 0.72023,6.13274 z"
       style="fill:#e8ebf5;fill-opacity:1;fill-rule:nonzero;stroke:none"
       id="path4425" />
    <path
       inkscape:connector-curvature="0"
       d="m 440.00073,405.3851 c 1.90816,1.50284 4.66751,1.18547 6.18281,-0.71876 1.48724,-1.87623 1.16921,-4.62989 -0.72024,-6.13274 -1.90816,-1.48418 -4.6675,-1.16681 -6.15474,0.70942 -1.50595,1.87622 -1.18792,4.62989 0.69217,6.14208 z"
       style="fill:#e8ebf5;fill-opacity:1;fill-rule:nonzero;stroke:none"
       id="path4427" />
    <path
       inkscape:connector-curvature="0"
       d="m 592.4849,428.98263 c 2.09523,1.64287 5.11648,1.29749 6.79079,-0.79343 1.6369,-2.06292 1.30017,-5.10595 -0.77636,-6.74882 -2.09523,-1.63353 -5.14454,-1.29749 -6.78144,0.76543 -1.64625,2.09092 -1.30016,5.11529 0.76701,6.77682 z"
       style="fill:#e8ebf5;fill-opacity:1;fill-rule:nonzero;stroke:none"
       id="path4429" />
    <path
       inkscape:connector-curvature="0"
       d="m 420.32053,383.18773 c 3.02125,0 5.83672,-1.3535 7.6981,-3.70578 3.36734,-4.23785 2.6471,-10.3986 -1.57142,-13.75901 -1.72108,-1.3535 -3.9005,-2.14693 -6.12668,-2.14693 -3.02125,0 -5.80865,1.3535 -7.68875,3.70579 -3.39539,4.25651 -2.67516,10.4266 1.53401,13.78701 1.7772,1.37216 3.95662,2.11892 6.15474,2.11892 z"
       style="fill:#e8ebf5;fill-opacity:1;fill-rule:nonzero;stroke:none"
       id="path4431" />
    <path
       inkscape:connector-curvature="0"
       d="m 527.15859,473.27562 c 2.99319,0 5.80866,-1.34977 7.68875,-3.70392 3.33928,-4.23412 2.65646,-10.3986 -1.56207,-13.75901 -1.74914,-1.40203 -3.95661,-2.14319 -6.15474,-2.14319 -3.02124,0 -5.80865,1.34976 -7.68875,3.70392 -1.64625,2.06385 -2.39454,4.63083 -2.06716,7.25008 0.31802,2.61925 1.60883,4.9482 3.70406,6.56213 1.67432,1.32269 3.85373,2.08999 6.07991,2.08999 z"
       style="fill:#e8ebf5;fill-opacity:1;fill-rule:nonzero;stroke:none"
       id="path4433" />
    <path
       inkscape:connector-curvature="0"
       d="m 416.76612,447.37153 0.76701,-0.21469 c 2.46937,-0.70942 4.51784,-2.35229 5.78994,-4.6299 1.24404,-2.26827 1.50595,-4.89126 0.79507,-7.37423 -1.5153,-4.7139 -6.02379,-7.51424 -10.79418,-6.80482 l -0.5051,0.084 -0.82313,0.20536 c -5.11648,1.58685 -8.00678,6.96351 -6.50083,12.04146 1.38435,4.57389 5.99573,7.48624 10.76612,6.77682 l 0.5051,-0.084 z"
       style="fill:#e8ebf5;fill-opacity:1;fill-rule:nonzero;stroke:none"
       id="path4435" />
    <path
       inkscape:connector-curvature="0"
       d="m 496.33812,502.7772 c 3.04931,0 5.86478,-1.34976 7.71681,-3.70392 1.64626,-2.09092 2.3852,-4.65696 2.06717,-7.27621 -0.31802,-2.59312 -1.61819,-4.895 -3.68536,-6.50893 -1.69302,-1.34976 -3.87243,-2.09092 -6.09862,-2.09092 -3.00254,0 -5.80865,1.32363 -7.68875,3.67778 -3.37668,4.28639 -2.65645,10.45181 1.6182,13.81221 1.69302,1.34883 3.87243,2.08999 6.07055,2.08999 z"
       style="fill:#e8ebf5;fill-opacity:1;fill-rule:nonzero;stroke:none"
       id="path4437" />
    <path
       inkscape:connector-curvature="0"
       d="m 416.53228,497.80286 c 3.02125,0 5.85542,-1.3759 7.71681,-3.73098 1.61819,-2.01065 2.35713,-4.57669 2.03911,-7.19688 -0.28997,-2.59218 -1.59013,-4.89406 -3.62924,-6.53506 -1.73044,-1.3759 -3.9005,-2.14319 -6.12668,-2.14319 -3.0306,0 -5.83672,1.34976 -7.6981,3.70485 -1.6369,2.03678 -2.3852,4.60376 -2.09523,7.19687 0.29931,2.61925 1.59948,4.94727 3.66665,6.58827 1.72108,1.34883 3.9192,2.11612 6.12668,2.11612 z"
       style="fill:#e8ebf5;fill-opacity:1;fill-rule:nonzero;stroke:none"
       id="path4439" />
    <path
       inkscape:connector-curvature="0"
       d="m 486.0771,369.82077 c -3.0306,0 -5.83671,1.3535 -7.6981,3.70579 -1.64625,2.06291 -2.38519,4.62989 -2.06717,7.22487 0.31803,2.59499 1.59013,4.91927 3.6573,6.53413 1.73044,1.37217 3.9005,2.11893 6.10797,2.11893 3.02125,0 5.85543,-1.3535 7.71681,-3.70579 1.6182,-2.01624 2.35714,-4.58322 2.06717,-7.16887 -0.28996,-2.59498 -1.59013,-4.94727 -3.6573,-6.59013 -1.7772,-1.38151 -3.92855,-2.11893 -6.12668,-2.11893 z"
       style="fill:#e8ebf5;fill-opacity:1;fill-rule:nonzero;stroke:none"
       id="path4441" />
    <path
       inkscape:connector-curvature="0"
       d="m 394.51365,368.31792 c -3.02125,0 -5.83672,1.34417 -7.71681,3.69645 -1.64626,2.06292 -2.35714,4.6299 -2.06717,7.25288 0.31802,2.59499 1.61819,4.91927 3.68536,6.53413 1.72108,1.3535 3.87243,2.11893 6.09862,2.11893 3.02125,0 5.83671,-1.3535 7.71681,-3.73379 1.59948,-1.97891 2.36649,-4.54589 2.04846,-7.14087 -0.27126,-2.62299 -1.57142,-4.94727 -3.63859,-6.59013 -1.77721,-1.40017 -3.91921,-2.1376 -6.12668,-2.1376 z"
       style="fill:#e8ebf5;fill-opacity:1;fill-rule:nonzero;stroke:none"
       id="path4443" />
    <path
       inkscape:connector-curvature="0"
       d="m 580.86759,434.37795 c -4.72362,0 -8.53993,3.5191 -8.69895,8.205 -0.21513,4.71391 3.52635,8.83974 8.29674,8.83974 l 0,0 c 5.06971,0 8.88603,-3.49109 9.0731,-8.17699 0.10289,-2.22161 -0.72024,-4.41521 -2.2823,-6.14208 -1.56207,-1.68954 -3.7602,-2.66966 -6.09862,-2.74434 l -0.28997,0.0187 z"
       style="fill:#e8ebf5;fill-opacity:1;fill-rule:nonzero;stroke:none"
       id="path4445" />
    <path
       inkscape:connector-curvature="0"
       d="m 424.19297,356.03376 c 2.38519,0.84944 5.06971,-0.34537 5.83671,-2.77233 0.85119,-2.38029 -0.34609,-5.03128 -2.73128,-5.89939 -2.46938,-0.90544 -5.08842,0.42005 -5.91155,2.80034 -0.90731,2.38029 0.34609,4.97527 2.80612,5.87138 z"
       style="fill:#e8ebf5;fill-opacity:1;fill-rule:nonzero;stroke:none"
       id="path4447" />
    <path
       inkscape:connector-curvature="0"
       d="m 372.42019,493.09362 c 1.70237,0.60861 3.63859,-0.26509 4.19046,-2.01157 0.60799,-1.69328 -0.26191,-3.59844 -1.96428,-4.23318 -1.77721,-0.63475 -3.6573,0.31737 -4.23723,2.01064 -0.66411,1.72034 0.23384,3.59844 2.01105,4.23411 z"
       style="fill:#e8ebf5;fill-opacity:1;fill-rule:nonzero;stroke:none"
       id="path4449" />
    <path
       inkscape:connector-curvature="0"
       d="m 457.21156,393.81969 c 2.44132,0 4.75168,-0.87744 6.58501,-2.48297 1.82397,-1.59619 3.04931,-3.97648 3.23638,-6.59013 0.17772,-2.59499 -0.66411,-5.18997 -2.39455,-7.15021 -1.90815,-2.16559 -4.58331,-3.37907 -7.42684,-3.37907 -2.3852,0 -4.68621,0.8681 -6.46341,2.42696 -4.05951,3.5751 -4.48978,9.76385 -0.93537,13.84301 1.88944,2.1376 4.59267,3.33241 7.39878,3.33241 l 0,0 z"
       style="fill:#e8ebf5;fill-opacity:1;fill-rule:nonzero;stroke:none"
       id="path4451" />
    <path
       inkscape:connector-curvature="0"
       d="m 439.79495,382.88903 c 1.08503,1.25082 0.97279,3.17372 -0.32738,4.26585 -1.21598,1.1388 -3.1522,0.99879 -4.26529,-0.2427 -1.08503,-1.24148 -0.98214,-3.20172 0.26191,-4.28452 1.2721,-1.1108 3.18961,-0.98012 4.33076,0.26137 z"
       style="fill:#e8ebf5;fill-opacity:1;fill-rule:nonzero;stroke:none"
       id="path4453" />
    <path
       inkscape:connector-curvature="0"
       d="m 540.81501,410.33236 c 1.11309,1.24149 1.0102,3.17372 -0.28997,4.25652 -1.24404,1.1108 -3.15219,1.00812 -4.29335,-0.26136 -1.06632,-1.24149 -0.98214,-3.17372 0.28997,-4.28453 1.24404,-1.09213 3.18026,-0.98011 4.29335,0.28937 z"
       style="fill:#e8ebf5;fill-opacity:1;fill-rule:nonzero;stroke:none"
       id="path4455" />
    <path
       inkscape:connector-curvature="0"
       d="m 481.74634,426.67702 c 1.11309,1.27882 1.0102,3.18305 -0.28997,4.29385 -1.21598,1.1108 -3.1522,0.99879 -4.26529,-0.2707 -1.09438,-1.24148 -0.98214,-3.17372 0.26191,-4.28452 1.24404,-1.0828 3.18026,-0.98012 4.29335,0.26137 z"
       style="fill:#e8ebf5;fill-opacity:1;fill-rule:nonzero;stroke:none"
       id="path4457" />
    <path
       inkscape:connector-curvature="0"
       d="m 498.08727,430.59749 c 3.74148,0 7.21171,-2.14692 8.85796,-5.50733 1.14115,-2.32429 1.30017,-5.07795 0.42092,-7.53292 -0.89796,-2.4923 -2.70323,-4.47121 -5.08842,-5.61001 -1.27211,-0.61608 -2.73128,-0.93345 -4.19046,-0.93345 -3.78825,0 -7.26783,2.20293 -8.88603,5.61001 -1.11309,2.24961 -1.2721,4.9006 -0.39285,7.41157 0.84183,2.4643 2.67516,4.49922 5.06035,5.63802 1.24405,0.60674 2.73129,0.92411 4.21853,0.92411 l 0,0 z"
       style="fill:#e8ebf5;fill-opacity:1;fill-rule:nonzero;stroke:none"
       id="path4459" />
    <path
       inkscape:connector-curvature="0"
       d="m 436.24054,509.57736 c 1.8801,0 3.6573,-0.84663 4.82652,-2.32895 1.02891,-1.29656 1.50594,-2.88342 1.31887,-4.52441 -0.20578,-1.64007 -1.02891,-3.12145 -2.32907,-4.12771 -1.06633,-0.84663 -2.44132,-1.32269 -3.81632,-1.32269 -1.88945,0 -3.63859,0.84664 -4.83586,2.32895 -1.02891,1.29656 -1.47789,2.88342 -1.29082,4.52442 0.17772,1.64006 1.00085,3.09531 2.30102,4.10063 1.08503,0.8737 2.44131,1.34976 3.82566,1.34976 z"
       style="fill:#e8ebf5;fill-opacity:1;fill-rule:nonzero;stroke:none"
       id="path4461" />
    <path
       inkscape:connector-curvature="0"
       d="m 388.44309,406.01984 c 1.8801,0 3.6573,-0.84944 4.82651,-2.30561 1.03827,-1.2975 1.48724,-2.91236 1.30017,-4.54589 -0.18707,-1.64287 -1.0102,-3.09904 -2.31037,-4.13517 -1.08503,-0.8401 -2.44131,-1.29749 -3.81631,-1.29749 -1.8801,0 -3.6573,0.84944 -4.82651,2.30561 -1.03827,1.29749 -1.5153,2.91236 -1.30017,4.55522 0.18708,1.61487 1.0102,3.06171 2.28231,4.09783 1.08503,0.84944 2.46002,1.3255 3.84437,1.3255 z"
       style="fill:#e8ebf5;fill-opacity:1;fill-rule:nonzero;stroke:none"
       id="path4463" />
    <path
       inkscape:connector-curvature="0"
       d="m 526.39159,444.80455 c 4.34948,0 8.39963,-1.96023 11.11221,-5.36732 4.87328,-6.08607 3.84437,-15.00049 -2.25425,-19.84507 -2.5255,-1.98825 -5.64964,-3.07104 -8.83925,-3.07104 -4.36818,0 -8.42769,1.96023 -11.14027,5.34865 -2.35713,2.93102 -3.4141,6.6368 -2.99319,10.39859 0.42092,3.72446 2.31037,7.11287 5.30356,9.46515 2.46938,1.96024 5.62158,3.07104 8.81119,3.07104 z"
       style="fill:#e8ebf5;fill-opacity:1;fill-rule:nonzero;stroke:none"
       id="path4465" />
    <path
       inkscape:connector-curvature="0"
       d="m 393.21348,485.42069 c 3.87244,-0.58247 7.22107,-2.91049 9.17599,-6.29796 3.50764,-6.16449 1.35629,-13.96997 -4.77039,-17.46293 -2.51615,-1.40203 -5.46257,-1.95743 -8.30609,-1.50751 -3.87244,0.58153 -7.21171,2.88341 -9.17599,6.27089 -1.72109,2.96276 -2.142,6.42865 -1.24405,9.73679 0.90731,3.3072 3.04931,6.03193 6.05185,7.7252 2.46003,1.40297 5.40645,1.98451 8.26868,1.53552 z"
       style="fill:#e8ebf5;fill-opacity:1;fill-rule:nonzero;stroke:none"
       id="path4467" />
    <path
       inkscape:connector-curvature="0"
       d="m 435.01521,443.66575 c 1.2721,1.03612 3.10543,0.79343 4.08757,-0.44806 1.02891,-1.26948 0.82312,-3.09904 -0.44898,-4.09783 -1.28146,-0.98012 -3.10543,-0.76542 -4.08757,0.47606 -1.0102,1.26949 -0.79507,3.11771 0.44898,4.06983 z"
       style="fill:#e8ebf5;fill-opacity:1;fill-rule:nonzero;stroke:none"
       id="path4469" />
    <path
       inkscape:connector-curvature="0"
       d="m 596.1422,495.23682 c 1.2721,1.03146 3.07737,0.79343 4.08757,-0.44992 1.0102,-1.27042 0.79506,-3.09625 -0.44898,-4.10157 -1.28146,-1.00532 -3.10543,-0.79343 -4.11563,0.47606 -1.0102,1.24428 -0.79507,3.09624 0.47704,4.07543 z"
       style="fill:#e8ebf5;fill-opacity:1;fill-rule:nonzero;stroke:none"
       id="path4471" />
    <path
       inkscape:connector-curvature="0"
       d="m 547.63386,496.00411 c 3.52635,0 6.7908,-1.56165 8.98892,-4.28639 3.92856,-4.97433 3.10543,-12.14507 -1.83333,-16.06088 -2.03911,-1.58779 -4.55526,-2.46057 -7.12753,-2.46057 -3.52634,0 -6.79079,1.56073 -8.99826,4.31253 -3.89115,4.89499 -3.06802,12.09187 1.86138,16.00768 2.03911,1.61393 4.56461,2.48763 7.10882,2.48763 z"
       style="fill:#e8ebf5;fill-opacity:1;fill-rule:nonzero;stroke:none"
       id="path4473" />
    <path
       inkscape:connector-curvature="0"
       d="m 451.30001,528.41619 c 4.24659,3.33333 10.40133,2.59311 13.79673,-1.5878 3.31121,-4.26025 2.6471,-10.3986 -1.57143,-13.73193 -4.26529,-3.36041 -10.44809,-2.6986 -13.81543,1.56072 -3.33927,4.20704 -2.62839,10.34539 1.59013,13.75901 z"
       style="fill:#e8ebf5;fill-opacity:1;fill-rule:nonzero;stroke:none"
       id="path4475" />
    <path
       inkscape:connector-curvature="0"
       d="m 518.98345,544.31764 c 1.73044,1.34939 4.21853,1.05834 5.60287,-0.66144 1.34694,-1.71988 1.08504,-4.20695 -0.63605,-5.55634 -1.73043,-1.376 -4.24658,-1.08476 -5.60287,0.63502 -1.34693,1.71978 -1.08503,4.20695 0.63605,5.58276 z"
       style="fill:#e8ebf5;fill-opacity:1;fill-rule:nonzero;stroke:none"
       id="path4477" />
    <path
       inkscape:connector-curvature="0"
       d="m 365.87259,462.4271 c 1.72108,1.34976 4.21852,1.05853 5.59352,-0.63475 1.35629,-1.74648 1.08503,-4.23318 -0.63605,-5.58294 -1.72109,-1.34883 -4.24659,-1.08467 -5.59352,0.63567 -1.35629,1.71941 -1.08503,4.20612 0.63605,5.58202 z"
       style="fill:#e8ebf5;fill-opacity:1;fill-rule:nonzero;stroke:none"
       id="path4479" />
    <path
       inkscape:connector-curvature="0"
       d="m 507.02941,366.51637 c 2.11394,1.68954 5.24743,1.34416 6.94981,-0.79343 1.66496,-2.11892 1.31887,-5.24597 -0.80442,-6.90751 -2.142,-1.71754 -5.24743,-1.35349 -6.96851,0.76543 -1.70238,2.14693 -1.35629,5.21797 0.82312,6.93551 z"
       style="fill:#e8ebf5;fill-opacity:1;fill-rule:nonzero;stroke:none"
       id="path4481" />
    <path
       inkscape:connector-curvature="0"
       d="m 366.56477,406.88794 c 2.11393,1.67087 5.24743,1.3255 6.94045,-0.79343 1.70237,-2.13759 1.32822,-5.23663 -0.79507,-6.9075 -2.142,-1.71754 -5.24743,-1.34416 -6.9498,0.77476 -1.69303,2.13759 -1.34694,5.20863 0.80442,6.92617 z"
       style="fill:#e8ebf5;fill-opacity:1;fill-rule:nonzero;stroke:none"
       id="path4483" />
    <path
       inkscape:connector-curvature="0"
       d="m 558.34386,398.76696 c 0,4.6859 -3.81631,8.49436 -8.51187,8.49436 -4.72363,0 -8.53994,-3.80846 -8.53994,-8.49436 0,-4.68591 3.81631,-8.49437 8.53994,-8.49437 4.69556,0 8.51187,3.80846 8.51187,8.49437 z"
       style="fill:#e8ebf5;fill-opacity:1;fill-rule:nonzero;stroke:none"
       id="path4485" />
    <path
       inkscape:connector-curvature="0"
       d="m 353.93726,425.88359 c 0,4.6859 -3.81632,8.49436 -8.51188,8.49436 -4.69556,0 -8.52123,-3.80846 -8.52123,-8.49436 0,-4.67657 3.82567,-8.48503 8.52123,-8.48503 4.69556,0 8.51188,3.80846 8.51188,8.48503 z"
       style="fill:#e8ebf5;fill-opacity:1;fill-rule:nonzero;stroke:none"
       id="path4487" />
    <path
       inkscape:connector-curvature="0"
       d="m 610.46273,509.68284 c 0,4.6831 -3.81632,8.49343 -8.53994,8.49343 -4.69556,0 -8.51187,-3.81033 -8.51187,-8.49343 0,-4.6831 3.81631,-8.49343 8.51187,-8.49343 4.72362,0 8.53994,3.81033 8.53994,8.49343 z"
       style="fill:#e8ebf5;fill-opacity:1;fill-rule:nonzero;stroke:none"
       id="path4489" />
    <path
       inkscape:connector-curvature="0"
       d="m 509.41461,536.67066 c 0,4.68366 -3.79761,8.49371 -8.51188,8.49371 -4.69556,0 -8.52123,-3.81005 -8.52123,-8.49371 0,-4.68311 3.82567,-8.4925 8.52123,-8.4925 4.71427,0 8.51188,3.80939 8.51188,8.4925 z"
       style="fill:#e8ebf5;fill-opacity:1;fill-rule:nonzero;stroke:none"
       id="path4491" />
    <path
       inkscape:connector-curvature="0"
       d="m 470.11032,439.11986 c 0,4.70457 -3.82566,8.49437 -8.52123,8.49437 -4.71426,0 -8.53993,-3.7898 -8.53993,-8.49437 0,-4.6859 3.82567,-8.46636 8.53993,-8.46636 4.69557,0 8.52123,3.78046 8.52123,8.46636 z"
       style="fill:#e8ebf5;fill-opacity:1;fill-rule:nonzero;stroke:none"
       id="path4493" />
    <path
       inkscape:connector-curvature="0"
       d="m 440.21587,542.96825 c 2.51615,1.98441 6.15474,1.56109 8.13773,-0.95249 1.99234,-2.48717 1.57142,-6.1124 -0.92602,-8.09597 -2.51615,-1.95837 -6.15474,-1.53552 -8.13773,0.92598 -1.99234,2.51321 -1.57142,6.13806 0.92602,8.12248 z"
       style="fill:#e8ebf5;fill-opacity:1;fill-rule:nonzero;stroke:none"
       id="path4495" />
    <path
       inkscape:connector-curvature="0"
       d="m 355.94831,487.56295 c 3.0306,0 5.83671,-1.34883 7.71681,-3.70391 1.61819,-2.08999 2.36648,-4.65697 2.04846,-7.27622 -0.31803,-2.59312 -1.61819,-4.895 -3.68536,-6.53506 -1.67432,-1.3227 -3.87244,-2.06385 -6.07991,-2.06385 -3.02125,0 -5.80866,1.32269 -7.68875,3.67778 -3.3954,4.28638 -2.65646,10.45087 1.59013,13.81127 1.70237,1.34977 3.87243,2.08999 6.09862,2.08999 z"
       style="fill:#e8ebf5;fill-opacity:1;fill-rule:nonzero;stroke:none"
       id="path4497" />
    <path
       inkscape:connector-curvature="0"
       d="m 471.77528,336.87943 c 0,4.68591 -3.81631,8.46637 -8.51187,8.46637 -4.69556,0 -8.51188,-3.78046 -8.51188,-8.46637 0,-4.70457 3.81632,-8.49436 8.51188,-8.49436 4.69556,0 8.51187,3.78979 8.51187,8.49436 z"
       style="fill:#e8ebf5;fill-opacity:1;fill-rule:nonzero;stroke:none"
       id="path4499" />
    <path
       inkscape:connector-curvature="0"
       d="m 209.4,368.57477 5.0375,4.1875 3.875,-4.6625 c 0.9,-1.0875 1.375,-2.125 1.4375,-3.1 0.075,-0.9875 -0.3,-1.8125 -1.1125,-2.5125 -0.775,-0.625 -1.6375,-0.8125 -2.575,-0.5625 -0.9375,0.25 -1.8625,0.9125 -2.775,1.9875 l -3.8875,4.6625 z m -8.8125,-7.325 4.675,3.8875 3.8875,-4.675 c 0.7,-0.8625 1.05,-1.7 1.0375,-2.5375 -0.0125,-0.8375 -0.3875,-1.5625 -1.1125,-2.1875 -0.75,-0.6 -1.5125,-0.825 -2.325,-0.675 -0.8,0.1625 -1.5625,0.6625 -2.275,1.5125 l -3.8875,4.675 z m -9.175,2.0625 8.925,-10.725 c 2.1625,-2.5625 4.3625,-4.15 6.5875,-4.8 2.2375,-0.6375 4.2375,-0.2375 6.0125,1.1875 1.2125,1.025 1.9625,2.25 2.275,3.6625 0.3125,1.4125 0.1375,2.875 -0.5125,4.375 1.4875,-1.1875 3.0875,-1.775 4.8,-1.7625 1.7,0.025 3.3,0.65 4.8125,1.875 1.925,1.65 2.8,3.7125 2.6375,6.175 -0.175,2.4625 -1.375,5.05 -3.6,7.775 l -9.25,11.1125 -22.6875,-18.875 z"
       style="fill:#e8ebf5;fill-opacity:1;fill-rule:nonzero;stroke:none"
       id="path4509" />
    <path
       inkscape:connector-curvature="0"
       d="m 214.0875,337.86227 17.9625,-14.525 3.7,4.5875 -12.125,9.8125 3.6875,4.55 10.95,-8.85 3.7125,4.5875 -10.95,8.85 3.7375,4.625 12.4875,-10.1 3.7125,4.5875 -18.325,14.8125 -18.55,-22.9375 z"
       style="fill:#e8ebf5;fill-opacity:1;fill-rule:nonzero;stroke:none"
       id="path4519" />
    <path
       inkscape:connector-curvature="0"
       d="m 236.95,319.94977 21.925,-12.4125 2.9875,5.275 -7.7375,4.375 11.575,20.4375 -6.5375,3.7 -11.5625,-20.4375 -7.6625,4.3375 -2.9875,-5.275 z"
       style="fill:#e8ebf5;fill-opacity:1;fill-rule:nonzero;stroke:none"
       id="path4529" />
    <path
       inkscape:connector-curvature="0"
       d="m 277.9875,309.06227 -1.1625,11.6875 8.2,-2.325 -7.0375,-9.3625 z m -5.525,-6.1875 7.4125,-2.1 20.025,24.9875 -7.7125,2.1875 -3.5125,-4.6625 -12.4,3.525 -0.5875,5.825 -7.425,2.1 4.2,-31.8625 z"
       style="fill:#e8ebf5;fill-opacity:1;fill-rule:nonzero;stroke:none"
       id="path4539" />
  </g>
</svg>
